<?xml version="1.0" encoding="UTF-8" standalone="no"?>
<svg
   xmlns:dc="http://purl.org/dc/elements/1.1/"
   xmlns:cc="http://creativecommons.org/ns#"
   xmlns:rdf="http://www.w3.org/1999/02/22-rdf-syntax-ns#"
   xmlns:svg="http://www.w3.org/2000/svg"
   xmlns="http://www.w3.org/2000/svg"
   xmlns:sodipodi="http://sodipodi.sourceforge.net/DTD/sodipodi-0.dtd"
   xmlns:inkscape="http://www.inkscape.org/namespaces/inkscape"
   width="43.773052mm"
   height="17.524511mm"
   viewBox="0 0 43.773052 17.524511"
   version="1.1"
   id="svg8"
   inkscape:version="1.0.2 (e86c870879, 2021-01-15, custom)"
   sodipodi:docname="Logo_3P.svg">
  <defs
     id="defs2" />
  <sodipodi:namedview
     id="base"
     pagecolor="#ffffff"
     bordercolor="#666666"
     borderopacity="1.0"
     inkscape:pageopacity="0.0"
     inkscape:pageshadow="2"
     inkscape:zoom="5.451954"
     inkscape:cx="97.331156"
     inkscape:cy="53.063725"
     inkscape:document-units="mm"
     inkscape:current-layer="text12"
     inkscape:document-rotation="0"
     showgrid="false"
     inkscape:window-width="1618"
     inkscape:window-height="1040"
     inkscape:window-x="189"
     inkscape:window-y="70"
     inkscape:window-maximized="0" />
  <metadata
     id="metadata5">
    <rdf:RDF>
      <cc:Work
         rdf:about="">
        <dc:format>image/svg+xml</dc:format>
        <dc:type
           rdf:resource="http://purl.org/dc/dcmitype/StillImage" />
        <dc:title />
      </cc:Work>
    </rdf:RDF>
  </metadata>
  <g
     inkscape:label="Layer 1"
     inkscape:groupmode="layer"
     id="layer1"
     transform="translate(-55.099609,-87.283551)">
    <g
       aria-label="3P"
       id="text12"
       style="font-style:normal;font-weight:normal;font-size:10.5833px;line-height:1.25;font-family:sans-serif;fill:#000000;fill-opacity:1;stroke:none;stroke-width:0.264583">
      <path
         d="m 76.263188,95.630329 q 2.815332,1.054199 2.815332,3.745507 0,2.753324 -2.418457,4.179594 -2.120801,1.25263 -5.308203,1.25263 -3.38584,0 -6.13916,-1.32705 -1.153418,-0.5581 -1.488281,-0.5581 -0.310059,0 -0.84336,0.45888 l -0.359668,-0.18603 1.984375,-4.576467 0.372071,0.161231 q -0.06201,0.148828 -0.06201,0.260449 0,0.669727 0.682129,1.227827 0.880566,0.71934 2.517675,1.19063 1.63711,0.45889 3.286622,0.45889 1.562695,0 2.678906,-0.5085 1.413867,-0.64492 1.413867,-2.021581 0,-1.190625 -1.00459,-1.79834 -1.00459,-0.607715 -2.96416,-0.607715 -1.190625,0 -1.649512,0.173633 -0.446484,0.173633 -0.570508,0.682129 h -0.396875 v -4.154785 h 0.396875 q 0.148829,0.558105 0.545704,0.731738 0.409277,0.16123 1.5875,0.16123 1.835546,0 2.815332,-0.644922 0.855761,-0.545703 0.855761,-1.575097 0,-1.054199 -0.95498,-1.624707 -0.954981,-0.570508 -2.728516,-0.570508 -2.505273,0 -4.402832,1.103809 -0.917773,0.545703 -0.917773,1.141015 0,0.235645 0.16123,0.558106 l -0.310058,0.248047 -2.852539,-3.509864 0.310058,-0.248047 q 0.458887,0.21084 0.682129,0.21084 0.248047,0 0.669727,-0.285254 3.112988,-2.095996 6.957714,-2.095996 2.678907,0 4.514454,1.054199 1.054199,0.607715 1.649511,1.575098 0.607715,1.00459 0.607715,2.244824 0,2.22002 -2.133203,3.472657 z"
         style="font-style:normal;font-variant:normal;font-weight:normal;font-stretch:normal;font-size:25.4px;font-family:'Copperplate Gothic Bold';-inkscape-font-specification:'Copperplate Gothic Bold, ';stroke-width:0.264583"
         id="path847" />
      <path
         d="m 86.123051,97.639508 v 5.581052 q 0,0.37207 0.173632,0.58291 0.186036,0.19844 0.620118,0.31006 v 0.39688 h -5.283399 v -0.39688 q 0.446485,-0.12402 0.620117,-0.32246 0.173633,-0.19844 0.173633,-0.57051 V 88.883454 q 0,-0.384473 -0.173633,-0.582911 -0.173632,-0.198437 -0.620117,-0.32246 v -0.396875 h 10.566797 q 1.847949,0 2.926953,0.248046 1.091406,0.248047 1.922363,0.855762 0.855762,0.63252 1.339453,1.661914 0.483692,1.066602 0.483692,2.257227 0,1.711523 -0.917774,3.001367 -0.79375,1.103808 -2.108398,1.575097 -1.302246,0.458887 -3.646289,0.458887 z m 0,-2.790527 h 5.643066 q 1.686719,0 2.368848,-0.359668 0.434082,-0.235645 0.694531,-0.744141 0.272851,-0.520898 0.272851,-1.141015 0,-0.607715 -0.272851,-1.116211 -0.260449,-0.520899 -0.694531,-0.756543 -0.669727,-0.359668 -2.368848,-0.359668 h -5.643066 z"
         style="font-style:normal;font-variant:normal;font-weight:normal;font-stretch:normal;font-size:25.4px;font-family:'Copperplate Gothic Bold';-inkscape-font-specification:'Copperplate Gothic Bold, ';stroke-width:0.264583"
         id="path849" />
    </g>
    <path
       id="path146"
       clip-path="none"
       style="fill:none;stroke:#000000;stroke-width:1"
       d="m 58.424919,97.564084 -1.366715,1.146812" />
    <path
       id="path144"
       clip-path="none"
       style="fill:#000000;stroke:#000000;stroke-width:1"
       d="m 56.794919,96.838451 6.595145,-5.533991 1.030785,1.228442 -5.99593,5.031182" />
    <path
       id="path142"
       clip-path="none"
       style="fill:none;stroke:#000000;stroke-width:1"
       d="m 55.428164,97.98529 1.366755,-1.146839" />
    <path
       id="rect14-1-7-9-4"
       style="fill:none;stroke:#000000;stroke-width:1"
       d="m 58.424919,97.564084 4.85612,2.162085 -0.65225,1.464981 v 0 l -5.570855,-2.480307" />
    <path
       id="path230"
       style="fill:none;stroke:#000000;stroke-width:1"
       d="m 56.795078,96.838432 1.629841,0.725652" />
    <path
       id="path226"
       style="fill:none;stroke:#000000;stroke-width:1"
       d="M 57.057934,98.710843 55.428087,97.985186" />
    <path
       style="fill:#ff0000;stroke:#000000;stroke-width:0.490197"
       d="m 214.18268,370.28239 -1.00232,-0.47624 0.89943,-0.75292 0.89943,-0.75292 0.94592,0.41053 c 0.52026,0.22578 0.99366,0.45475 1.05201,0.50881 0.0953,0.0883 -1.5566,1.5735 -1.72308,1.54911 -0.038,-0.006 -0.52012,-0.22443 -1.07139,-0.48637 z"
       id="path233"
       transform="scale(0.26458333)" />
    <path
       style="fill:#ff0000;stroke:#000000;stroke-width:0.490197"
       d="m 219.42038,365.97632 -1.08222,-0.48249 10.44907,-8.77089 c 5.74698,-4.82399 10.49456,-8.77067 10.55016,-8.7704 0.11814,5.7e-4 1.38996,1.54816 1.31737,1.60303 -0.15538,0.11745 -18.01847,15.08702 -18.98487,15.90964 l -1.16728,0.99361 z"
       id="path235"
       transform="scale(0.26458333)" />
    <path
       style="fill:#ff0000;stroke:#000000;stroke-width:0.490197"
       d="m 227.70084,376.29752 c -4.38703,-1.95634 -8.05745,-3.60664 -8.15649,-3.66735 -0.13495,-0.0827 0.0392,-0.28788 0.69482,-0.81871 0.48119,-0.38958 0.94159,-0.69437 1.02311,-0.67729 0.25925,0.0543 15.05876,6.65824 15.17107,6.76974 0.0592,0.0588 -0.0867,0.52167 -0.32425,1.0287 l -0.43184,0.92188 z"
       id="path237"
       transform="scale(0.26458333)" />
    <path
       style="fill:#ff0000;stroke:#000000;stroke-width:0.490197"
       d="m 325.62273,350.02722 v -8.43036 l 11.18644,0.001 c 11.59042,10e-4 14.01893,0.0803 16.22194,0.52724 2.05344,0.41663 2.85797,0.79806 3.92729,1.86194 2.49922,2.4865 3.11841,6.61992 1.49793,9.99936 -0.55776,1.16319 -1.65364,2.44779 -2.52233,2.95668 -1.23273,0.72217 -3.23425,1.16439 -6.25232,1.38139 -1.00588,0.0723 -6.77635,0.13106 -12.93736,0.13169 l -11.12159,10e-4 z"
       id="path239"
       transform="scale(0.26458333)" />
    <path
       style="fill:#ff0000;stroke:#ff0000;stroke-width:0.264583px;stroke-linecap:butt;stroke-linejoin:miter;stroke-opacity:1"
       d="m 65.25167,92.755856 0.549053,0.652003 0.566214,-0.377474 -0.154422,-0.446108 0.01714,-0.394632 0.274529,-0.446106 0.686316,-0.394634 1.098111,-0.49758 1.509898,-0.394632 1.286846,-0.08579 1.630005,0.08579 1.218213,0.428948 0.566214,0.549053 0.24021,0.42895 0.06863,0.652003 -0.274527,0.73779 -0.49758,0.514739 -0.806424,0.41179 -1.029478,0.137265 -1.218213,0.05147 -0.857898,-0.08579 -0.428948,-0.188738 -0.240212,-0.257368 -0.102947,-0.223054 -0.01714,-0.120105 -0.703474,0.01714 0.03431,4.40959 v 0.120105 h 0.617686 l 0.137266,-0.291684 0.223052,-0.291685 0.274526,-0.171579 0.549055,-0.06863 1.389793,0.01717 0.995162,0.08579 0.892214,0.257368 0.652002,0.257371 0.480423,0.428948 0.188735,0.617686 0.06863,0.703476 -0.205896,0.669158 -0.428948,0.54905 -0.720635,0.48043 -0.960845,0.25737 -1.338318,0.17157 -1.218216,-0.0686 -1.492739,-0.22305 -1.715797,-0.58337 -0.995158,-0.46326 -0.566214,-0.463267 -0.343159,-0.343159 -0.120105,-0.360317 0.05147,-0.308843 0.102947,-0.223054 -0.720635,-0.308843 -0.120105,-0.05147 -0.360317,0.926528 -4.186537,-1.853059 z"
       id="path241" />
    <path
       style="fill:#000000;stroke:#000000;stroke-width:0.245098"
       d="m 219.66244,365.77669 c -0.62871,-0.28424 -0.77721,-0.37541 -0.71061,-0.4363 0.0831,-0.076 9.71012,-8.14777 13.92945,-11.6792 1.19484,-1.00004 3.13459,-2.61489 4.31056,-3.58857 l 2.13812,-1.77031 0.2202,0.25141 c 0.44451,0.5075 0.74299,0.93908 0.68528,0.99087 -0.0323,0.029 -2.04303,1.71172 -4.46838,3.73948 -6.16081,5.15087 -13.9531,11.6855 -14.69102,12.31993 l -0.61879,0.53201 z"
       id="path1068"
       transform="scale(0.26458333)" />
    <path
       style="fill:#000000;stroke:#000000;stroke-width:0.245098"
       d="m 214.42057,370.08488 -0.72452,-0.34396 0.6706,-0.55928 0.67061,-0.55929 0.73483,0.32812 c 0.40416,0.18046 0.74942,0.34236 0.76726,0.35978 0.0178,0.0174 -0.0843,0.133 -0.22697,0.25687 -0.75566,0.65608 -1.01927,0.86497 -1.08959,0.86343 -0.0427,-9.4e-4 -0.40373,-0.15649 -0.80222,-0.34567 z"
       id="path1070"
       transform="scale(0.26458333)" />
    <path
       style="fill:#000000;stroke:#000000;stroke-width:0.245098"
       d="m 226.28296,379.84623 c -6.21492,-2.77017 -11.29989,-5.06814 -11.29993,-5.10661 -3e-5,-0.0385 0.16121,-0.42922 0.35831,-0.86835 0.19711,-0.43913 0.34474,-0.81206 0.32807,-0.82873 -0.0293,-0.0293 -0.19228,0.31069 -0.5908,1.23201 -0.10414,0.24075 -0.21577,0.43773 -0.24806,0.43773 -0.0323,0 -1.40904,-0.60031 -3.05944,-1.33404 l -3.00073,-1.33403 0.38261,-0.84801 c 0.31878,-0.70652 0.36912,-0.86533 0.30171,-0.95188 -0.0445,-0.0571 -0.30712,-0.37581 -0.58361,-0.70816 -0.27649,-0.33235 -0.50085,-0.62417 -0.49857,-0.64849 0.005,-0.054 4.93538,-4.1766 5.03429,-4.20957 0.0387,-0.0129 0.32605,0.28473 0.63863,0.66136 0.31258,0.37664 0.58207,0.67106 0.59886,0.65426 0.0168,-0.0168 -0.23324,-0.34548 -0.55562,-0.73041 -0.32239,-0.38494 -0.56676,-0.71833 -0.54306,-0.74088 0.0237,-0.0225 5.68982,-4.77685 12.59137,-10.56513 6.90155,-5.78827 12.80181,-10.73851 13.11169,-11.00053 l 0.56341,-0.4764 3.11628,3.7136 c 1.71395,2.04248 3.11649,3.73195 3.11676,3.75437 5.8e-4,0.0491 0.7761,-0.60481 -11.58765,9.76984 -5.5353,4.64477 -10.07997,8.47059 -10.09927,8.50182 -0.0193,0.0312 1.60597,0.78824 3.61171,1.68224 2.00574,0.89399 5.89623,2.62719 8.64553,3.85155 l 4.99873,2.2261 -1.98143,4.45684 c -1.08979,2.45126 -1.99685,4.45444 -2.01568,4.45151 -0.0188,-0.003 -5.11918,-2.27183 -11.33411,-5.04201 z m 9.60997,-0.95963 c 0.16605,-0.37915 0.29311,-0.73503 0.28236,-0.79084 -0.0122,-0.0634 -0.73642,-0.42667 -1.93239,-0.96918 -1.81997,-0.82559 -12.00072,-5.3552 -12.67182,-5.63794 -0.31214,-0.13151 -0.32214,-0.13177 -0.51662,-0.0135 -0.40263,0.24485 -1.2813,0.98467 -1.22921,1.03496 0.0533,0.0514 1.91851,0.89375 7.57629,3.42142 1.60501,0.71706 4.08549,1.82778 5.51216,2.46827 1.42668,0.64049 2.61272,1.16714 2.63564,1.17034 0.0229,0.003 0.17755,-0.30439 0.34359,-0.68353 z m -16.56508,-6.32227 c 0,-0.11687 -0.0151,-0.12507 -0.10034,-0.0544 -0.0802,0.0665 -0.0834,0.094 -0.0162,0.13664 0.11571,0.0734 0.11655,0.0728 0.11655,-0.0823 z m -2.01032,-3.29936 c 0,-0.028 -0.0438,-0.0678 -0.0973,-0.0883 -0.0658,-0.0253 -0.0973,0.003 -0.0973,0.0883 0,0.085 0.0314,0.11357 0.0973,0.0883 0.0535,-0.0205 0.0973,-0.0603 0.0973,-0.0883 z m 1.55638,-3.82608 c 0,-0.0357 -0.0309,-0.0649 -0.0687,-0.0649 -0.0378,0 -0.0506,0.0292 -0.0286,0.0649 0.022,0.0357 0.0529,0.0648 0.0687,0.0648 0.0157,0 0.0286,-0.0292 0.0286,-0.0648 z"
       id="path1072"
       transform="scale(0.26458333)" />
    <path
       style="fill:#000000;stroke:#000000;stroke-width:0.245098"
       d="m 235.11857,379.21827 c -0.24446,-0.11485 -11.70972,-5.25537 -14.5748,-6.5347 -0.24075,-0.10751 -0.43773,-0.21506 -0.43773,-0.23902 0,-0.0471 0.70058,-0.62025 0.98507,-0.80587 l 0.17445,-0.11383 2.16011,0.95451 c 4.77512,2.11003 10.77305,4.79716 11.64922,5.21894 0.86136,0.41466 0.92578,0.45802 0.88406,0.59502 -0.0589,0.19332 -0.46927,1.08967 -0.49571,1.08268 -0.0112,-0.003 -0.16634,-0.0739 -0.34467,-0.15773 z"
       id="path1074"
       transform="scale(0.26458333)" />
  </g>
</svg>
